/* XPM */
static char *out[] = {
/* columns rows colors chars-per-pixel */
"64 64 92 1 ",
"  c black",
". c #28200C",
"X c #302410",
"o c #382C14",
"O c #202020",
"+ c #2C2C2C",
"@ c gray22",
"# c #403018",
"$ c #483818",
"% c #404000",
"& c #585400",
"* c #706C00",
"= c #400040",
"- c #500050",
"; c #580058",
": c #484848",
"> c gray33",
", c #646464",
"< c gray44",
"1 c #7C7C7C",
"2 c #B11E44",
"3 c #B81E46",
"4 c #B22547",
"5 c #B92A4C",
"6 c #B43040",
"7 c #B53550",
"8 c #B73D55",
"9 c #D21E4F",
"0 c #E41D56",
"q c #E51D56",
"w c #E41E56",
"e c #E41F56",
"r c #CA214E",
"t c #CB2650",
"y c #CB2C53",
"u c #CF3F5D",
"i c #D53359",
"p c #E42156",
"a c #E42057",
"s c #E42157",
"d c #E42256",
"f c #E52356",
"g c #E42257",
"h c #E52556",
"j c #E52756",
"k c #E42358",
"l c #E52458",
"z c #E52558",
"x c #E52659",
"c c #E52759",
"v c #E5295A",
"b c #BD4D40",
"n c #BF455C",
"m c #BA485D",
"M c #BD5063",
"N c #B76F79",
"B c #DA4B4E",
"V c #C65943",
"C c #C25E40",
"Z c #CC6943",
"A c #C96E40",
"S c #D56E45",
"D c #D17940",
"F c #E4754B",
"G c #C45467",
"H c #C05869",
"J c #C85F70",
"K c #D75C72",
"L c #C46372",
"P c #C86B79",
"I c #D0717F",
"U c #848400",
"Y c #9C9C00",
"T c #B4AC00",
"R c #C78F32",
"E c #E4AB36",
"W c #CCC400",
"Q c #E4D800",
"! c #DB8A40",
"~ c #E59940",
"^ c #CD7783",
"/ c #D47986",
"( c #E27788",
") c gray55",
"_ c #989898",
"` c gray66",
"' c #B4B4B4",
"] c #E9A7AF",
"[ c #C0C0C0",
"{ c #D0D0D0",
"} c gainsboro",
"| c #ECECEC",
/* pixels */
"=+++++++++++++++++++++++++++++++++++++++++++++++++++++++++++++++",
"$>>>>>>>>>>:}WWWWW}}}}}}TTT}O@)`}}}}}WWW<))>O::::::::::>>>>>>>>>",
"$>>>>>>>>>>:}{TTTT_`WW{[[WW)O@)[')W1WYYY*>>@O@<YYYY111<,::::::::",
"=))))))))O>:}{TTT*_WWY[[[UT,O@`}`)1W1*U*>1>@O@YWQY*)'[WWW,,WW)))",
"-{'T''`))O>:}{YYU*_WY``_))Y>O@)[)))``,U*><>@O@YQT*,1'}WQQ:,WWU1{",
";``TT><1<O>:}[YU*<1_`_Y)<)U>O@:`WY`))1&><>>@O@YQ*,)'QW1YY:,YU*:)",
"-'_*>)))<O::}{Y**1`___Y)_<)>O@:1YUT)``<,<@@@O@UY*,1WWW1*Y:<,::,T",
"=''1)`)<>O@:}{)11_`_{1U_`))>O@:<)`)`)))`<@@@+@U*,))1W11**:<1)<1U",
"=_``<<)::O+:}[`_1_W__)_))`)>OO:><<>>@@@@@@@O@@1,)1``1)`1:<)_))`1",
"=))))<>::O+:}|`1_1WT<)))`))>+O::@@@@@@@@@OO@@@1'')Y1_11_,<_)_))`",
"=<<<<>:@@O+:}})1__WY<`)`)`)>+O@:@++OOOOO++@@@@1'1Y:)`Q1)<)<_,<),",
"=>>:::OOOO+:`}kqqqqqqqqqqqqqqqqqqqqqqqK`}}*@@@<')1,,1Y@>>,::::::",
"OOOOOO++++@>)}xqqqqqqqqqqqqqqqqqqqqqqq({{}W*@@>)<,,>:&@@@@@@++++",
"O+++++++++@><`xqqqqqqqqqqqqqqqqqqqqqqqK)`Y<&O@@@@@@@@@@@++OOOOOO",
"O@@@@@@@@@@>:)xqqqqqqqqqqqqqqqqqqqqqqqFQ)Y>*@@++++++++++@@@@@@@@",
"O>:@@@@@@@@>:<zqqqqBM^L^Lb8M7247^~CHL!E1)U>&@::>>>>O::::::::::::",
"O_________+O>:zqqqqV`<)))<,>>OO:QQ11`QQ<)*>@@:QTT,>:>1__________",
"={WT}}WY<<@O>:sqqqqn)<<`)<)<:OO:Q1)1)Y*,`)>@@@TTU,+:1[WWW}T``WWW",
"=WTUTTY*><@O>:eqqqqJ<)>)<><>:OO:1)1)Q,,,>>>@O@YU>,O:_WWW1QY1`WYU",
"-TU`TYU*><@O:>wqqqqn<<<<><>:+OO+`)<)<>@@@@@@O,YU<>O:_WW1_YY1_WYU",
"-U`)TY**>>@O:>wqqqq5@@@@+OOOOOO+)<@@@OOOOOOOO,)U)>O:_`1)_Y11`WYU",
"$`)`T*>>)>@O:>wqqqq3OOOOOOOOOOO+@>@OOOO++++++)`)`>O:)`_`_`1`1`Y*",
"$)`11><)<>@O@>wqqqq3OOOOO:::::::))_YYYYY1>+@,[}`[,O:))`Q_)`_``11",
"$)WY1))),:@O@)hqqqq/'',@:,YWWWT{|||WWWWTYUO@1}[}`<O:1_`_)`_Q_1`_",
"#)YU`))),:@O@WfqqqqG11@>:YWT<_``_`_Y1YUYU*O@)}``[QO:Q`_`_QQ1`__`",
"-_U))))<>@@O@Tdqqqqn,,O>:_|__Y_W`__1`U1Y*&O@)Q))`YO:Y&<,QTU*&<<>",
"=,,,,,>:@@@O@TpqqqqZ*,O::_|Q`_WU_WW`_U`U,&O@)T<)`*O:&@@:&&&&::>>",
"=>::@@@OOOO+@TpqqqqV*,O::_|W`WY1_WU_`__1,%O@)<)`}&O:++OOOOOOOO@@",
"-OOOOOO+++:::|eqqqqV*,O@:_|T_W*1`_`_1TU1,%O@Q|`}`>O:@@@@+++OOOOO",
";:,,<)_)))):O|gqqqqiHm627P]D^AbHPHP^PRU1>%O@T|[[`>O:@@@@@@@@@@@@",
"#,)'TT)````,O|kqqqqqqqqqqqqqqqqqqqqqqSU)>%O*Y}``T>O:*YYYTTUU::::",
"#,'TTU,````:O|kqqqqqqqqqqqqqqqqqqqqqqSU,>%O@Y}}TY>O:<Y*YYYTTTU_@",
"o,TYU,)`TT<,O|xqqqqqqqqqqqqqqqqqqqqqqSU<:@O@Y}`T*>O:_<<YYUU***1@",
"X,TY<<`<TU<,O|gqqqqqqqqqqqqqqqqqqqqqqSU,:+O*){[T&>O:}``Y*<<&,<,@",
".,<)`)<)T*<>O}kqqqqI1,%O+>)|[WU*1__)`YU,:OOY){`U*%O:{`)Y*)1_,_,@",
"o,``)``TY*<>O}zqqqqG),%OO:<{[U*,1)`_TY,,@OO:){)*&%O:[``Y*1)__`>@",
"#,}_`))U**<>O[cqqqqJ`,%%O:>'}*,1)`)U,,,<@O@:1`1*%&@:``)YU<_1<_>@",
"$,}``)_**<<>O'cqqqqJ),%%O@>)[_11<<<,,<<>@O@:>@@&&@@:<>:>>>>>>>>@",
"$,}')TU)<)_>O_cqqqqG),>%O@>:))<<>>:O%:>:OO@:>::@@@::OOOOOOOOOOOO",
"#,}'`)_)TY<>O1cqqqqn)1>%O+::@+++OO+++@@@@@@::::::::::::@@@@@@@@@",
"X,}TT_)TYU<>O>vqqqqJ`1>&O+:::@@@@@:::>>,,,<<11111UUUU1111111111@",
"X,TTU`_Y**,>O:vqqqqJ11>&O+@,YYYYYYYU11)__`````''WWWTU[[QT[WTU[1@",
".,TU1__)**,O+:vqqqqI),>&OO@*WWWWWWWWY`[`[_[`[[[WTUUU''QT[[TTTU,+",
".,TU1`))))>O+:vqqqqJ),>&OO@*WTTTTTTTU`[``[WY_`_TU`_WWT1)[TYTU1>+",
" ,TU))`)`)>O@:cqqqqJ`,>%OO@+TTYYYYYYU*)[``YY``_[_`WTT1)_`<<T<<>+",
" :U1)`)`),>O@:xqqqqJ),>@OO@+)))YUYUU**<`[`)1_[__`W111_``_))T<<>+",
" :))))1,>>O+@:lqqqqJ1,>@OO@+[}[Y****<<)`[)')__WW_)1<))QT'`)T<<>+",
"=:11<,>>>>O+@:gqqqqJ<,>@OO@+'}{U<<<<1_)Y`'`)'W`))`))_'TU`__<<<>O",
".:@O>>>>>>O@::aqqqqn,>>@OO@+`}{<1))TTU'))'_`'`)T`T`_'TU_``_TT<>O",
".>>>++OO+O+@:@0qqqq5@@@@OO++){')'_'TT*)')'_))QT*_`[_`__`_))'1<>O",
".::::@@++++@:@0qqqq922222224LPMMMMMCbbN`<1)'QT*`)`_))'1))W_)_<>O",
"=:1`WWWY),::>@0qqqqqqqqqqqqqqqqqqqqqqqu<1)T'**11<,1)))11'1,11,>O",
".:`WQWWWWTY`)<eqqqqqqqqqqqqqqqqqqqqqqqy>>>>>>>>>>>>>>>>>>>>>>>O+",
".:`WQT)))_`[TQjqqqqqqqqqqqqqqqqqqqqqqqr++++OO++++++OOOOOOOOOOO+@",
"=:`[_T_[['['[`sqqqqqqqqqqqqqqqqqqqqqqqt@@@@@@@+++++++++++++++@@:",
"=:`[[_['``_[`'['`)))))UUU)_[}QQ)[1@:>:::@@@@@@@@@@@@@@@@@@@@@:::",
"=:`'{['[QTU''{`{[[WY_)))))'`)QU)1,O@>:UTTT,:::>>>*TYU**&:::::>>>",
"=:`[[`)1TU&[`[{```{[[`[`{`1`{`)),>O@::TUUU,}}'>>YWWWY1W``{W'_1::",
"o:`)<,,,U&<1<,<1<,,,<1)`)1,,,,,,>>@O@:,UU*,''',>)11111``)WY<`}_O",
";:),:@@@@@@@@@@@@@@@@@@@@@@@@@@@@@@O+:'U*,_,_),:))`)`WW``YU<)`>O",
".:@OOOOOOOOOOOOOOOOOOOOOOOOOOOOOOOOO+:@%&>,,,,,:,,_`WWY1`U<<))>O",
".>:@@@+++++++++++++++++++++++++++++++@:%%@OOOOO@:>>*&>>>*&>>>>>O",
".>>>>::::::::@@@@@@@@@@@@@@@@@@@@@@@@@::::@@@@@@::OOOOOOOOOOOOOO",
",@@@@@@@@@@@@@@@@@@@@@@@@@@@@@@@@@@@@@@@@@@@@@@@@@@@@@@@@@@@@@@@"
};
