/* XPM */
static char *out[] = {
/* columns rows colors chars-per-pixel */
"64 64 168 2 ",
"   c black",
".  c #28200C",
"X  c #302410",
"o  c #382C14",
"O  c #202020",
"+  c #2C2C2C",
"@  c gray22",
"#  c #403018",
"$  c #483818",
"%  c #5C1F2A",
"&  c #6F1F2F",
"*  c #48262B",
"=  c #58202A",
"-  c #45373A",
";  c #51373A",
":  c #5A363B",
">  c #6B202F",
",  c #782F3C",
"<  c #67363C",
"1  c #404000",
"2  c #585400",
"3  c #706C00",
"4  c #400040",
"5  c #500050",
"6  c #580058",
"7  c #7D3341",
"8  c #484848",
"9  c #5B4648",
"0  c gray33",
"q  c #5D5354",
"w  c #664549",
"e  c #79434B",
"r  c #635254",
"t  c #646464",
"y  c #796063",
"u  c #736F70",
"i  c #707070",
"p  c #7C7C7C",
"a  c #931F3A",
"s  c #9E1E3D",
"d  c #A21F3F",
"f  c #81293A",
"g  c #826719",
"h  c #917F18",
"j  c #946F22",
"k  c #976028",
"l  c #B56938",
"z  c #C05F3F",
"x  c #C7703F",
"c  c #A71F40",
"v  c #AB1E42",
"b  c #B71F47",
"n  c #9C2F46",
"m  c #893242",
"M  c #953044",
"N  c #953E4D",
"B  c #A62B46",
"V  c #B9254A",
"C  c #A73A4F",
"Z  c #B23F55",
"A  c #C71E4B",
"S  c #CC1E4D",
"D  c #D21E4F",
"F  c #E51D56",
"G  c #C5224C",
"H  c #C1284E",
"J  c #C82F52",
"K  c #D42252",
"L  c #DC2254",
"P  c #DE2C57",
"I  c #C03453",
"U  c #CD3255",
"Y  c #D83557",
"T  c #D73D5E",
"R  c #E42156",
"E  c #E42558",
"W  c #E22B5A",
"Q  c #E33554",
"!  c #E33A54",
"~  c #E3335D",
"^  c #DD3C61",
"/  c #E43D62",
"(  c #944955",
")  c #BA475D",
"_  c #A1535F",
"`  c #9A5760",
"'  c #955861",
"]  c #B65565",
"[  c #BC5A6B",
"{  c #9B6970",
"}  c #9D6F75",
"|  c #8E7578",
" . c #827A7B",
".. c #B2626E",
"X. c #A36B73",
"o. c #A86871",
"O. c #BB6C77",
"+. c #CE4F48",
"@. c #DA434E",
"#. c #D05448",
"$. c #C8415D",
"%. c #DF4B51",
"&. c #D5405F",
"*. c #E15D4D",
"=. c #E55652",
"-. c #CB6B42",
";. c #D56747",
":. c #E3684C",
">. c #CD4A64",
",. c #DB4262",
"<. c #DB4866",
"1. c #C15668",
"2. c #D3526A",
"3. c #DA556E",
"4. c #D3596F",
"5. c #CF5F72",
"6. c #C36473",
"7. c #CB6676",
"8. c #D66276",
"9. c #D26D7D",
"0. c #848400",
"q. c #9C9C00",
"w. c #8B8110",
"e. c #A19810",
"r. c #B4AC00",
"t. c #B58E29",
"y. c #CFBA1B",
"u. c #CA8936",
"i. c #D9923D",
"p. c #D4A82E",
"a. c #D5A531",
"s. c #CCC400",
"d. c #E4D800",
"f. c #E4C228",
"g. c #DC8442",
"h. c #E58247",
"j. c #A57D82",
"k. c #BB7A83",
"l. c #CA7D88",
"z. c #D07280",
"x. c #8C8C8C",
"c. c #9B8487",
"v. c #9D9696",
"b. c #989898",
"n. c #AA858A",
"m. c #B0858B",
"M. c #A68F91",
"N. c #A39193",
"B. c #BB9297",
"V. c #B19FA1",
"C. c #ACA4A5",
"Z. c gray66",
"A. c #B4B4B4",
"S. c #C5848D",
"D. c #CE8D96",
"F. c #D6979F",
"G. c #E2909B",
"H. c #C9ACAF",
"J. c #E8A0A9",
"K. c #E0AEB4",
"L. c #C0C0C0",
"P. c #D1CFCF",
"I. c #D0CFD0",
"U. c #D0D0D0",
"Y. c gainsboro",
"T. c #EAC7CB",
"R. c #EBE3E4",
"E. c #ECECEC",
/* pixels */
"4 + + + + + + + + + + + + + + + + + + + + + + + + + + + + + + + + + + + + + + + + + + + + + + + + + + + + + + + + + + + + + + + ",
"$ 0 0 0 0 0 0 0 0 0 0 8 Y.s.s.s.s.s.Y.Y.Y.Y.Y.Y.r.r.r.Y.O @ x.Z.Y.Y.Y.Y.Y.s.s.s.i x.x.0 O 8 8 8 8 8 8 8 8 8 8 0 0 0 0 0 0 0 0 0 ",
"$ 0 0 0 0 0 0 0 0 0 0 8 Y.U.r.r.r.r.b.Z.s.s.U.L.L.s.s.x.O @ x.L.A.x.s.p s.q.q.q.3 0 0 @ O @ i q.q.q.q.p p p i t 8 8 8 8 8 8 8 8 ",
"4 x.x.x.x.x.x.x.x.O 0 8 Y.U.r.r.r.3 b.s.s.q.L.L.L.0.r.t O @ Z.Y.Z.x.p s.p 3 0.3 0 p 0 @ O @ q.s.d.q.3 x.A.L.s.s.s.t t s.s.x.x.x.",
"5 U.A.r.A.A.Z.x.x.O 0 8 Y.U.q.q.0.3 b.s.q.Z.Z.b.x.x.q.0 O @ x.L.x.x.x.Z.Z.t 0.3 0 i 0 @ O @ q.d.r.3 t p A.Y.s.d.d.8 t s.s.0.p U.",
"6 Z.Z.r.r.0 i p i O 0 8 Y.L.q.0.3 i p b.Z.b.q.x.i x.0.0 O @ 8 Z.s.q.Z.x.x.p 2 0 i 0 0 @ O @ q.d.3 t x.A.d.s.p q.q.8 t q.0.3 8 x.",
"5 A.b.3 0 x.x.x.i O 8 8 Y.U.q.3 3 p Z.b.b.b.q.x.b.i x.0 O @ 8 p q.0.r.x.Z.Z.i t i @ @ @ O @ 0.q.3 t p s.s.s.p 3 q.8 i t 8 8 t r.",
"4 A.A.p x.Z.x.i 0 O @ 8 Y.U.x.p p b.Z.b.U.p 0.b.Z.x.x.0 O @ 8 i x.Z.x.Z.x.x.x.Z.i @ @ @ + @ 0.3 t x.x.p s.p p 3 3 8 i p x.i p 0.",
"4 b.Z.Z.i i x.8 8 O + 8 Y.L.Z.b.p b.s.b.b.x.b.x.x.Z.x.0 O O 8 0 i i 0 0 @ @ @ @ @ @ @ O @ @ p t x.p Z.Z.p x.Z.p 8 i x.b.x.x.Z.p ",
"4 x.x.x.x.i 0 8 8 O + 8 Y.E.Z.p b.p s.r.i x.x.x.Z.x.x.0 + O 8 8 @ @ @ @ @ @ @ @ @ O O @ @ @ p A.A.x.q.p b.p p b.t i b.x.b.x.x.Z.",
"4 i i i i 0 8 @ @ O + 8 Y.Y.x.p b.b.s.q.i Z.x.Z.x.Z.x.0 + O @ 8 @ + + O O O O O + + @ @ @ @ p A.p q.8 x.Z.d.p x.i x.i b.t i x.t ",
"4 0 0 8 8 8 O O % F F F F F 8.b.p s.r.q.i b.x.x.p x.i t @ O @ 8 8 C F F F F F 9.Y.Y.3 @ @ @ i A.x.p t t p q.@ q 0 t w F F F F F ",
"O O O O O O + + + K F F F F / x.p x.q.i x.x.Z.p x.q.x.0 @ O @ 8 i 8.F F F F F / P.Y.s.3 @ @ 0 x.u t t 0 8 2 @ @ @ @ M F F F F F ",
"O + + + + + + + + V F F F F F j.Z.x.x.x.Z.x.x.b.x.t t 0 @ O + @ Z.! F F F F F F B.q.u 2 O @ @ @ @ @ @ @ @ @ @ @ + + b F F F F F ",
"O @ @ @ @ @ @ @ @ M F F F F F l.x.Z.b.i b.x.p x.Z.0.0 0 @ O + 8 B.F F F F F F F 6.q.0 3 @ @ + + + + + + + + + + @ @ K F F F F L ",
"O 0 8 @ @ @ @ @ @ ; F F F F F 2.Z.b.s.q.i Z.x.Z.x.3 0 i 8 O + 8 z.F F F F F F F ^ 0.0 2 @ 8 8 0 0 0 0 O 8 8 8 8 8 w F F F F F I ",
"O b.b.b.b.b.b.b.b.b.K F F F F ~ w.x.q.0.Z.i x.x.x.i t 0 0 O O 8 =.F F F F F F F F j 0 @ @ 8 d.r.r.t 0 8 0 p b.b.b.k.F F F F F k.",
"4 U.s.r.Y.Y.s.q.i i B F F F F F k t b.t x.i i Z.x.i x.i 8 O O e F F F F R F F F F O.0 @ @ @ r.r.0.t + 8 p L.s.s.s.G.F F F F F y.",
"4 s.r.0.r.r.q.3 0 i f F F F F F ) t x.x.i x.0 x.i 0 u q 8 O O C F F F F h.F F F F U 0 @ O @ q.0.0 t O 8 b.s.s.s.p =.F F F F @.0.",
"5 r.0.Z.r.q.0.3 0 i - F F F F F 4.i x.t i i i i 0 i 0 8 + O O S F F F F { R F F F F : @ O t q.0.i 0 O 8 b.s.s.p M.F F F F F -.0.",
"5 0.Z.x.r.q.3 3 0 0 @ A F F F F R r @ @ @ @ @ @ + O O O O O * F F F F F ; A F F F F a O O t x.0.x.0 O 8 b.Z.p x.k.F F F F F t.h ",
"$ Z.x.Z.r.3 0 0 x.0 @ d F F F F F , + O O O O O O O O O O O a R F F F D O v F F F F G + + x.Z.x.Z.0 O 8 x.Z.b.Z.5.F F F F E q.3 ",
"$ x.Z.p p 0 i x.u 0 @ & F F F F F v O O O O O O O 8 8 8 8 8 V E F F F x q.t.F F F F F - t L.Y.Z.L.t O 8 x.x.Z.d.^ F F F F 3.p p ",
"$ x.s.q.p x.x.x.t 8 @ O L F F F F #.x.A.A.A.t @ 8 t q.s.s.s.! F F F F a.s.y.Q F F F F m  .Y.A.Y.Z.i O 8 p b.Z.M.F F F F F [ Z.b.",
"o x.q.0.Z.x.x.x.t 8 @ O H F F F F R  . .p p @ 0 8 q.s.r.i m.R F F F E e.p q.+.F F F F V x.Y.Z.Z.L.d.O 8 d.Z.b.S.F F F F F m.b.Z.",
"5 b.0.x.x.x.x.i 0 @ @ O n F F F F F ` t t t O 0 8 b.E.b.b.x F F F F 2. .Z.0...F F F F L x.d.x.x.Z.q.O 8 q.2 i $.F F F F L u i 0 ",
"4 t t t t t 0 8 @ @ @ O < F F F F F z q.3 t O 8 8 b.E.d.Z.<.F F F F i.Z.b.0.V.F F F F F n.r.u x.Z.3 O 8 2 @ @ L F F F F J 8 0 0 ",
"4 0 8 8 @ @ @ O O O O + @ %.F F F F &.0.3 t O 8 8 b.E.s.V.F F F F F j v.Z.b.b.T F F F F O.i x.Z.Y.2 O 8 + + > F F F F F c O @ @ ",
"5 O O O O O O + + + 8 8 8 J.F F F F R w.3 t O @ 8 b.E.r.k.F F F F ^ Z.b.p r.0.[ F F F F :.E.Z.Y.Z.0 O 8 @ @ n F F F F F > O O O ",
"6 8 t t i x.b.x.x.x.x.8 O T.F F F F F ` p t 1 O 8 b.E.r.8.F F F F 1.b.Z.b.r.0.} F F F F F R.L.L.Z.0 O 8 @ @ H F F F F K @ @ @ @ ",
"# t x.A.r.r.x.Z.Z.Z.Z.t O E.R F F F F 6.p t $ O 8 b.E.Z.Q F F F F B.Z.b.Z.r.0.x.W F F F F K.Z.Z.r.0 O 8 3 q.Y F F F F +.8 8 8 8 ",
"# t A.r.r.0.t Z.Z.Z.Z.8 O E.3.F F F F T x.t 1 O 8 p b.p.F F F F W v.b.p b.r.0.t V F F F F G.Y.r.q.0 O 8 i t.F F F F F u.r.0.b.@ ",
"o t r.q.0.t x.Z.r.r.i t O E.G.F F F F F C.t 1 O @ 0 b.;.F F F F 4.Z.p b.p r.0.i N F F F F ~ V.r.3 0 O 8 b.] F F F F F g 3 3 p @ ",
"X t r.q.i i Z.i r.0.i t O E.m.R F F F F o.t 1 O + 0 Z.8.F F F F O.p p p p r.0.t 9 F F F F F H.r.2 0 O 8 Y.8.F F F F Y 2 t u t @ ",
". t i x.Z.x.i x.r.3 i 0 O Y.C.~ F F F F 1.t 1 O + 0 j.F F F F F | b.b.x.Z.q.0.t 8 G F F F F 9.0.3 1 O 8 I.~ F F F F [ b.t b.t @ ",
"o t Z.Z.x.Z.Z.r.q.3 i 0 O Y.L.>.F F F F ,.t 1 O O 8 ] F F F F Y p x.Z.b.r.q.t t @ s F F F F ~ 3 2 $ O 8 H.F F F F F j.v.b.Z.0 @ ",
"# t Y.b.Z.x.x.0.3 3 i 0 O L.Y.O.F F F F F y 1 1 O 8 U F F F F [ x.Z.x.0.t t t i @ = R F F F F k 1 2 @ 8 S.F F F F R v.p i b.0 @ ",
"$ t Y.Z.Z.x.b.3 3 i i 0 O A.Y.| F F F F F _ 1 1 O ; F F F F F X.i i i t t i i 0 @ O L F F F F Z 2 @ @ 8 &.F F F F U 0 0 0 0 0 @ ",
"$ t Y.A.x.r.0.x.i x.b.0 O b.Y.Z.P F F F F ) 0 1 O m F F F F W u 0 0 8 O 1 8 0 8 O O B F F F F K @ @ 8 8 L F F F F v O O O O O O ",
"# t Y.A.Z.x.b.x.r.q.i 0 O p Y.b.5.F F F F T 0 $ O V F F F F V + O O + + + @ @ @ @ @ f F F F F F 9 8 8 e F F F F F 7 @ @ @ @ @ @ ",
"X t Y.r.r.b.x.r.q.0.i 0 O 0 E.Z.S.F F F F R r 2 O D F F F F M @ @ @ 8 8 8 0 0 t t t i P F F F F o.0.0.l F F F F W  .p p p p p @ ",
"X t r.r.0.Z.b.q.3 3 t 0 O 8 E.b.c.F F F F F ( 2 = F F F F R e.q.q.q.q.0.p p x.b.b.Z.Z.9.F F F F g.s.s.;.F F F F ;.L.s.r.0.L.p @ ",
". t r.0.p b.b.x.3 3 t O + 8 E.Z.x.Y F F F F ) 2 a F F F F :.y.s.s.s.s.s.q.Z.L.Z.L.b.L.D.F F F F %.0.0.Y F F F F F.L.r.r.r.0.t + ",
". t r.0.p Z.x.x.x.x.0 O + 8 E.x.Z.) F F F F U 2 b F F F F u.r.r.r.r.r.r.0.Z.L.Z.Z.L.s.q.W F F F R V.N.F F F F F H.r.q.r.0.p 0 + ",
"  t r.0.x.x.Z.x.Z.x.0 O @ 8 Y.Z.Z.S.F F F F L o S F F F E t.q.q.q.q.q.q.0.3 x.L.Z.Z.q.q.8.F F F F B.p.R F F F ^ Z.i i r.i i 0 + ",
"  8 0.p x.Z.x.Z.x.t 0 O @ 8 U.x.x.V.F F F F R < L F F F ! x.x.q.0.q.0.0.3 3 i Z.L.Z.x.p k.F F F F g.[ R F F F z.b.x.x.r.i i 0 + ",
"  8 x.x.x.x.p t 0 0 O + @ 8 A.Z.x.x.3.F F R R d F F F F D.Y.A.q.3 3 3 3 i i x.Z.L.x.A.x.N.F F F F 2.>.R F F E u.A.Z.x.r.i i 0 + ",
"4 8 p p i t 0 0 0 0 O + @ 8 b.b.Z.x.6.F F R R J F F F F F.Y.P.h i i i i p b.x.q.Z.A.Z.x.A.*.F F F ,.,.F F F F w.Z.b.b.i i i 0 O ",
". 8 @ O 0 0 0 0 0 0 O @ 8 8 p t t t ' F F F F F F F F L Z.Y.I.u p x.x.r.r.0.A.x.x.A.b.Z.A.l.F F F F E F F F @.b.Z.Z.b.r.r.i 0 O ",
". 0 0 0 + + O O + O + @ 8 @ @ @ @ @ - F F F F F F F F A x.I.A.x.A.b.A.r.r.3 x.A.x.A.b.x.x.f.F F F F F F F F 7.Z.b.x.x.A.p i 0 O ",
". 8 8 8 8 @ @ + + + + @ 8 @ @ O O O O A F F F F F F F c x.b.i u i i i 0.3 3 x.Z.u p x.A.d.r.W F F F F F F F X.x.x.s.b.x.b.i 0 O ",
"4 8 p Z.s.s.s.q.x.t 8 8 0 @ @ + + + + B F F F F F F F < 0 8 @ + + + + + + 0 i i p x.r.A.3 3 1.F F F F F F E  .p A.p t p p t 0 O ",
". 8 Z.s.d.s.s.s.s.r.q.Z.x.i t 0 8 @ @ 7 F F F F F F K 8 0 8 8 @ @ @ @ @ @ + 8 0 0 0 0 0 0 0 ( F F F F F F U q 0 0 0 0 0 0 0 O + ",
". 8 Z.s.d.r.x.x.x.b.Z.L.r.d.d.s.s.s.r.r.! F F F F F ] t t 0 0 8 8 8 8 8 @ @ + + + + + O O + * L F F F F F d O O O O O O O O + @ ",
"4 8 Z.L.b.r.b.L.L.A.L.A.L.Z.x.x.q.q.q.q.;.F F F F F j.L.Z.Z.Z.Z.Z.x.8 0 8 @ @ @ @ @ @ @ @ @ + G F F F F F , + + + + + + + @ @ 8 ",
"4 8 Z.L.L.b.L.A.Z.Z.b.L.Z.A.L.A.Z.x.x.x.x.x.0.0.0.x.b.L.Y.d.d.x.L.p @ 8 0 8 8 8 @ @ @ @ @ @ @ @ @ @ @ @ @ @ @ @ @ @ @ @ @ 8 8 8 ",
"4 8 Z.A.U.L.A.L.d.r.0.A.A.U.Z.U.L.L.s.q.b.x.x.x.x.x.A.Z.x.d.0.x.p t O @ 0 8 0.r.r.r.t 8 8 8 0 0 0 3 r.q.0.3 3 2 8 8 8 8 8 0 0 0 ",
"4 8 Z.L.L.Z.x.p r.0.2 L.Z.L.U.Z.Z.Z.U.L.L.Z.L.Z.U.Z.p Z.U.Z.x.x.t 0 O @ 8 8 r.0.0.0.t Y.Y.A.0 0 q.s.s.s.q.p s.Z.Z.U.s.A.b.p 8 8 ",
"o 8 Z.x.i t t t 0.2 i p i t i p i t t t i p x.Z.x.p t t t t t t 0 0 @ O @ 8 t 0.0.3 t A.A.A.t 0 x.p p p p p Z.Z.x.s.q.i Z.Y.b.O ",
"6 8 x.t 8 @ @ @ @ @ @ @ @ @ @ @ @ @ @ @ @ @ @ @ @ @ @ @ @ @ @ @ @ @ @ O + 8 A.0.3 t b.t b.x.t 8 x.x.Z.x.Z.s.s.Z.Z.q.0.i x.Z.0 O ",
". 8 @ O O O O O O O O O O O O O O O O O O O O O O O O O O O O O O O O O + 8 @ 1 2 0 t t t t t 8 t t b.Z.s.s.q.p Z.0.i i x.x.0 O ",
". 0 8 @ @ @ + + + + + + + + + + + + + + + + + + + + + + + + + + + + + + + @ 8 1 1 @ O O O O O @ 8 0 0 3 2 0 0 0 3 2 0 0 0 0 0 O ",
". 0 0 0 0 8 8 8 8 8 8 8 8 @ @ @ @ @ @ @ @ @ @ @ @ @ @ @ @ @ @ @ @ @ @ @ @ @ 8 8 8 8 @ @ @ @ @ @ 8 8 O O O O O O O O O O O O O O ",
"t @ @ @ @ @ @ @ @ @ @ @ @ @ @ @ @ @ @ @ @ @ @ @ @ @ @ @ @ @ @ @ @ @ @ @ @ @ @ @ @ @ @ @ @ @ @ @ @ @ @ @ @ @ @ @ @ @ @ @ @ @ @ @ "
};
