/* XPM */
static char *out[] = {
/* columns rows colors chars-per-pixel */
"64 64 246 2 ",
"   c black",
".  c #28200C",
"X  c #302410",
"o  c #382C14",
"O  c #202020",
"+  c #2D2023",
"@  c #2C2C2C",
"#  c #392023",
"$  c #392C2C",
"%  c gray22",
"&  c #3B3838",
"*  c #403018",
"=  c #483818",
"-  c #621F2C",
";  c #641F2D",
":  c #731F32",
">  c #761F32",
",  c #771F32",
"<  c #432025",
"1  c #452025",
"2  c #532029",
"3  c #572029",
"4  c #592B33",
"5  c #52373B",
"6  c #68202E",
"7  c #63353D",
"8  c #6C353E",
"9  c #71353E",
"0  c #404000",
"q  c #585400",
"w  c #706C00",
"e  c #786A0A",
"r  c #7B6910",
"t  c #400040",
"y  c #500050",
"u  c #580058",
"i  c #484848",
"p  c #504748",
"a  c #514748",
"s  c gray33",
"d  c #674549",
"f  c #68454A",
"g  c #655254",
"h  c #6E5054",
"j  c #715054",
"k  c #7D5F62",
"l  c #646464",
"z  c #6D6263",
"x  c gray44",
"c  c #7C7C7C",
"v  c #821F35",
"b  c #801F36",
"n  c #891F37",
"m  c #8A1F38",
"M  c #901F3A",
"N  c #97273F",
"B  c #A85934",
"V  c #B76738",
"C  c #BB643B",
"Z  c #BB633C",
"A  c #C2773A",
"S  c #C5733D",
"D  c #C6713E",
"F  c #CE7F3D",
"G  c #A41E40",
"H  c #A61F40",
"J  c #AC1E43",
"K  c #B31E45",
"L  c #992740",
"P  c #8B3243",
"I  c #973045",
"U  c #9A3C4E",
"Y  c #A22643",
"T  c #A32E47",
"R  c #A32F47",
"E  c #A62D47",
"W  c #BD294D",
"Q  c #B43040",
"!  c #BD3251",
"~  c #C41D4A",
"^  c #D81D53",
"/  c #DB1D52",
"(  c #DD1D53",
")  c #E31D55",
"_  c #E01F55",
"`  c #E31E55",
"'  c #E31F56",
"]  c #E51D56",
"[  c #E41E56",
"{  c #E51E56",
"}  c #E41F56",
"|  c #E51F57",
" . c #C0234B",
".. c #C3224B",
"X. c #CA2550",
"o. c #CD2550",
"O. c #C62F52",
"+. c #D62352",
"@. c #D72755",
"#. c #DE2255",
"$. c #DD2455",
"%. c #D62854",
"&. c #D52D56",
"*. c #D92956",
"=. c #DE2D59",
"-. c #C03251",
";. c #C23152",
":. c #DE3352",
">. c #D9325B",
",. c #D6385B",
"<. c #D43C5C",
"1. c #DF395F",
"2. c #E32156",
"3. c #E52057",
"4. c #E42256",
"5. c #E42257",
"6. c #E52257",
"7. c #E12554",
"8. c #E12457",
"9. c #E52555",
"0. c #E42655",
"q. c #E52656",
"w. c #E42955",
"e. c #E52258",
"r. c #E32558",
"t. c #E22758",
"y. c #E32759",
"u. c #E12958",
"i. c #E33554",
"p. c #E2335D",
"a. c #89404C",
"s. c #924954",
"d. c #A64354",
"f. c #AB4154",
"g. c #A94255",
"h. c #B8485D",
"j. c #815D62",
"k. c #845D62",
"l. c #AC5A66",
"z. c #BD5063",
"x. c #BC5A6A",
"c. c #8E676C",
"v. c #826B6E",
"b. c #93656B",
"n. c #91666C",
"m. c #9F6069",
"M. c #8D7679",
"N. c #85797A",
"B. c #887879",
"V. c #BF6875",
"C. c #BD6A76",
"Z. c #B76F79",
"A. c #B76F7A",
"S. c #BA6D78",
"D. c #BB6D78",
"F. c #B3727B",
"G. c #B7707A",
"H. c #B1747D",
"J. c #B1757D",
"K. c #C74546",
"L. c #C44646",
"P. c #CA4247",
"I. c #CF4E48",
"U. c #D5444D",
"Y. c #DC464F",
"T. c #C8465F",
"R. c #CE6644",
"E. c #D16146",
"W. c #CF4862",
"Q. c #DA4161",
"!. c #D84563",
"~. c #D24F68",
"^. c #DD4B68",
"/. c #C75066",
"(. c #CE556B",
"). c #CA5A6D",
"_. c #D25068",
"`. c #D6516A",
"'. c #DB526C",
"]. c #C85F70",
"[. c #D85D72",
"{. c #E54064",
"}. c #CE6173",
"|. c #C76C7A",
" X c #D66175",
".X c #E6687E",
"XX c #848400",
"oX c #9C9C00",
"OX c #9D9C00",
"+X c #B4AC00",
"@X c #BCA21C",
"#X c #CFBC14",
"$X c #C4952D",
"%X c #D0B720",
"&X c #E5BA2E",
"*X c #CCC400",
"=X c #E4D800",
"-X c #DC8144",
";X c #E58A45",
":X c #A57D82",
">X c #A67D82",
",X c #A77D82",
"<X c #C87E88",
"1X c #D47382",
"2X c #E37C8C",
"3X c gray55",
"4X c #9A8487",
"5X c #9A8587",
"6X c #9C8486",
"7X c #988688",
"8X c #9A9696",
"9X c #989898",
"0X c #AF878C",
"qX c #AC898D",
"wX c #B58188",
"eX c #B7979B",
"rX c #B59B9E",
"tX c #B39EA0",
"yX c #AFA0A2",
"uX c #AFA1A3",
"iX c #ADA2A3",
"pX c #ACA3A4",
"aX c #A9A7A7",
"sX c #AAA7A7",
"dX c gray66",
"fX c #B6B1B2",
"gX c #B4B4B4",
"hX c #C7808A",
"jX c #C5848D",
"kX c #D0808C",
"lX c #D7828F",
"zX c #C28A91",
"xX c #C08C92",
"cX c #DD8A96",
"vX c #D9A3AA",
"bX c #C6B3B5",
"nX c #C3BABB",
"mX c #C2BBBC",
"MX c #C2BCBD",
"NX c #E0B5BA",
"BX c #E9BAC0",
"VX c #C0C0C0",
"CX c #D2C6C7",
"ZX c #D0D0D0",
"AX c gainsboro",
"SX c #ECECEC",
/* pixels */
"t @ @ @ @ @ @ @ @ @ @ @ @ @ @ @ @ @ @ @ @ @ @ @ @ @ @ @ @ @ @ @ @ @ @ @ @ @ @ @ @ @ @ @ @ @ @ @ @ @ @ @ @ @ @ @ @ @ @ @ @ @ @ @ ",
"= s s s s s s s s s s i AX*X*X*X*X*XAXAXAXAXAXAX+X+X+XAXO % 3XdXAXAXAXAXAX*X*X*Xx 3X3Xs O i i i i i i i i i i s s s s s s s s s ",
"= s s s s s s s s s s i AXZX+X+X+X+X9XdX*X*XZXVXVX*X*X3XO % 3XVXgX3X*Xc *XoXoXoXw s s % O % x oXoXoXoXc c c x l i i i i i i i i ",
"t 3X3X3X3X3X3X3X3XO s i AXZX+X+X+Xw 9X*X*XoXVXVXVXXX+Xl O % dXAXdX3Xc *Xc w XXw s c s % O % oX*X=XoXw 3XgXVX*X*X*Xl l *X*X3X3X3X",
"y ZXgX+XgXgXdX3X3XO s i AXZXoXoXXXw 9X*XoXdXdX9X3X3XoXs O % 3XVX3X3X3XdXdXl XXw s x s % O % oX=X+Xw l c gXAX*X=X=Xi l *X*XXXc ZX",
"u dXdX+X+Xs x c x O s i AXVXoXXXw x c 9XdX9XoX3Xx 3XXXs O % i dX*XoXdX3X3Xc q s x s s % O % oX=Xw l 3XgX=X*Xc oXoXi l oXXXw i 3X",
"y gX9Xw s 3X3X3Xx O i i AXZXoXw w c dX9X9X9XoX3X9Xx 3Xs O % i c oXXX+X3XdXdXx l x % % % O % XXoXw l c *X*X*Xc w oXi x l i i l +X",
"t gXgXc 3XdX3Xx s O % i AXZX3Xc c 9XdX9XZXc XX9XdX3X3Xs O % i x 3XdX3XdX3X3X3XdXx % % % @ % XXw l 3X3Xc *Xc c w w i x c 3Xx c XX",
"t 9XdXdXx x 3Xi i O @ i AXVXdX9Xc 9X*X9X9X3X9X3X3XdX3Xs O O i s x x s s % % % % % % % O % % c l 3Xc dXdXc 3XdXc i x 3X9X3X3XdXc ",
"t 3X3X3X3Xx s i i O @ i AXSXdXc 9Xc *X+Xx 3X3X3XdX3X3Xs @ O i i % % % % % % % % % O O % % % c gXgX3XoXc 9Xc c 9Xl x 9X3X9X3X3XdX",
"t x x x x s i % % O @ i AXAX3Xc 9X9X*XoXx pX,XzXD.<XC.d.N m 9 a % @ @ O O O O O @ @ % % % % c gXc oXi 3XdX=Xc 3Xx 3Xx 9Xl x 3Xl ",
"t s s i i i O O O O @ i dXAXdX9Xc *X@XS ,.3.] ] ] ] ] ] ] ] ] [ @.! U v.dXdXdXdXAXAXw % % % x gX3Xc l l c oX% s s l i i i i i i ",
"O O O O O O @ @ @ @ % s 3XAXZX3XM.).4.] ] ] ] ] ] ] ] ] ] ] ] ] ] ] ] q.2XNXAXZXZXAX*Xw % % s 3Xx l l s i q % % % % % % @ @ @ @ ",
"O @ @ @ @ @ @ @ @ @ % s x dXZXH.p.] ] ] ] ] ] ] ] ] ] ] ] ] ] ] ] ] ] ] ] Q.dX3XdXoXx q O % % % % % % % % % % % @ @ O O O O O O ",
"O % % % % % % % % % % s i 3XvX| ] ] ] ] ] ] ] ] ] ] ] ] ] ] ] ] ] ] ] ] ] V.=X=X3XoXs w % % @ @ @ @ @ @ @ @ @ @ % % % % % % % % ",
"O s i % % % % % % % % s i m.e.] ] ] ] ] }  XA.eX4Xr h c.a.G ..#.] ] ] ] ] %X=Xc 3XXXs q % i i s s s s O i i i i i i i i i i i i ",
"O 9X9X9X9X9X9X9X9X9X@ O g $.] ] ] ] ] U.rXx 3X3X3Xx l s s O O p &X;Xr.] '.=X=Xx 3Xw s % % i =X+X+Xl s i s c 9X9X9X9X9X9X9X9X9X9X",
"t ZX*X+XAXAX*XoXx x % O f.] ] ] ] ] `.z 3Xx x dX3Xx 3Xx i O O i =Xc 7Xx.Z.oXw l dX3Xs % % % +X+XXXl @ i c VX*X*X*XAX+XdXdX*X*X*X",
"t *X+XXX+X+XoXw s x % O &.] ] ] ] 2.6X3Xx 3Xs 3Xx s x s i O O i c 3Xc 3X=Xl l l s s s % O % oXXXs l O i 9X*X*X*Xc =XoXc dX*XoXXX",
"y +XXXdX+XoXXXw s x % 1 ] ] ] ] ] T.3Xl x x x x s x s i @ O O @ dX3Xx 3Xx s % % % % % % O l oXXXx s O i 9X*X*Xc 9XoXoXc 9X*XoXXX",
"y XXdX3X+XoXw w s s % : ] ] ] ] ] g.% % % % % % @ O O O O O O @ 3Xx % % % O O O O O O O O l 3XXX3Xs O i 9XdXc 3X9XoXc c dX*XoXXX",
"= dX3XdX+Xw s s 3Xs % b ] ] ] ] ] L @ O O O O O O O O O O O O @ % s % O O O O @ @ @ @ @ @ 3XdX3XdXs O i 3XdX9XdX9XdXc dXc dXoXw ",
"= 3XdXc c s x 3Xx s % , ] ] ] ] ] H O O O O O O O i i i i i i i 3X3X9XoXoXoXoXoXc s @ % l VXAXdXVXl O i 3X3XdX=X9X3XdX9XdXdXc c ",
"= 3X*XoXc 3X3X3Xl i % ; ] ] ] ] ] R.3XgXgXgXl % i l oX*X*X*X+XZXSXSXSX*X*X*X*X+XoXXXO % c AXVXAXdXx O i c 9XdX9X3XdX9X=X9Xc dX9X",
"* 3XoXXXdX3X3X3Xl i % # ` ] ] ] ] u.N.c c c % s i oX*X+Xx 9XdXdX9XdX9XoXc oXXXoXXXw O % 3XAXdXdXVX=XO i =XdX9XdX9X=X=Xc dX9X9XdX",
"y 9XXX3X3X3X3Xx s % % O o.] ] ] ] ] h.l l l O s i 9XSX9X9XoX9X*XdX9X9Xc dXXXc oXw q O % 3X=X3X3XdXoXO i oXq x l =X+XXXw q x x s ",
"t l l l l l s i % % % O E ] ] ] ] ] ] A w l O i i 9XSX=XdX9X*XXX9X*X*XdX9XXXdXXXl q O % 3X+Xx 3XdXw O i q % % i q q q q i i s s ",
"t s i i % % % O O O O @ 5 i.] ] ] ] ] ] P.k O i i 9XSX*XdX*XoXc 9X*XXX9XdX9X9Xc l 0 O % 3Xx 3XdXAXq O i @ @ O O O O O O O O % % ",
"y O O O O O O @ @ @ i i i BX] ] ] ] ] ] ] 2.K 7 i 9XSX+X9X*Xw c dX9XdX9Xc +XXXc l 0 O % =XSXdXAXdXs O i % % % % @ @ @ O O O O O ",
"u i l l x 3X9X3X3X3X3Xi O SX}.] ] ] ] ] ] ] ] ) ;.0XSX+XdXoXw c 9Xc 9XdX9X+XXXc s 0 O % +XSXVXVXdXs O i % % % % % % % % % % % % ",
"* l 3XgX+X+X3XdXdXdXdXl O SXsXcX] ] ] ] ] ] ] ] ] ] .XhX#XoXw c 9XdXdX9XdX+XXX3Xs 0 O w oXAXdXdX+Xs O i w oXoXoX+X+XXXXXi i i i ",
"* l gX+X+XXXl dXdXdXdXi O SXdX9XjXt.] ] ] ] ] ] ] ] ] ] 9.K.b.c dX9X9Xc 9X+XXXl s 0 O % oXAXAX+XoXs O i x oXw oXoXoX+X+X+XXX9X% ",
"o l +XoXXXl 3XdX+X+Xx l O SXZXdX9XtXI.] ] ] ] ] ] ] ] ] ] ] ] ~.qXdXc 9Xc +XXXx i % O % oXAXdX+Xw s O i 9Xx x oXoXXXXXw w w c % ",
"X l +XoXx x dXx +XXXx l O SX9X3X9XdX3X:XW.{ ] ] ] ] ] ] ] ] ] ] { /.B.c c +XXXl i @ O w 3XZXVX+Xq s O i AXdXdXoXw x x q l x l % ",
". l x 3XdX3Xx 3X+Xw x s O AXdXdXdX9XdXdXc j.Q ( ] ] ] ] ] ] ] ] ] ] 1.>XdXoXXXl i O O oX3XZXdXXXw 0 O i ZXdX3XoXw 3Xc 9Xl 9Xl % ",
"o l dXdX3XdXdX+XoXw x s O AXVXc 9X*X+Xc 3Xl 0 + n O.} ] ] ] ] ] ] ] ] y.$XoXl l % O O i 3XZX3Xw q 0 O i VXdXdXoXw c 3X9X9XdXs % ",
"* l AX9XdX3X3XXXw w x s O VXAX3X9X+XXX3XdXl 0 0 O i j kX{.] ] ] ] ] ] ] 8.k.l x % O % i c dXc w 0 q % i dXdX3XoXXXx 9Xc x 9Xs % ",
"= l AXdXdX3X9Xw w x x s O gXAXc dX3X3X3X3Xl 0 0 O % s 3XnX|.6.] ] ] ] ] ] <.x s % O % i s % % q q % % i x s i s s s s s s s s % ",
"= l AXgX3X+XXX3Xx 3X9Xs O 9XAXdXc dXdXc 3Xl s 0 O % s i 3X3Xn.>.] ] ] ] ] ] s.i O O % i s i i % % % i i O O O O O O O O O O O O ",
"* l AXgXdX3X9X3X+XoXx s O c AX9X9XdX3Xl 3Xc s 0 O @ i i % @ @ 4 ^ ] ] ] ] ] W % % % % i i i i i i i i i i i i % % % % % % % % % ",
"X l AX+X+X9X3X+XoXXXx s O s SXdXdX3X3X3XdXc s q O @ i i i % % % P ] ] ] ] ] *.l l l x x c c c c c XXXXXXXXc c c c c c c c c c % ",
"X l +X+XXXdX9XoXw w l s O i SX9X3XoXc 3Xc c s q O @ % l oXoXoXoXOXY.] ] ] ] { 8X9XdXdXdXdXdXgXgX*X*X*X+XXXVXVX=X+XVX*X+XXXVXc % ",
". l +XXXc 9X9X3Xw w l O @ i SXdX3XXXl dX3Xl s q O O % w *X*X*X*X*X-X] ] ] ] ] uXVX9XVXdXVXVXVX*X+XXXXXXXgXgX=X+XVXVX+X+X+XXXl @ ",
". l +XXXc dX3X3X3X3Xs O @ i SX3XdXl l 3X3Xl s q O O % w *X+X+X+X+XF ] ] ] ] ] yXdXVX*XoX9XdX9X+XXXdX9X*X*X+Xc 3XVX+XoX+XXXc s @ ",
"  l +XXX3X3XdX3XdX3Xs O % i AXdXdXdXdX3XdXl s 0 O O % @ +X+XoXoXoXD ] ] ] ] ] MXdXdXoXoXdXdX9XVX9XdX*X+X+Xc 3X9XdXx x +Xx x s @ ",
"  i XXc 3XdX3XdX3Xl s O % i ZX3X3XdX3X3X3Xl s % O O % @ 3X3X3XoXXXE.] ] ] ] =.dXVXdX3Xc 9XVX9X9XdX*Xc c c 9XdXdX9X3X3X+Xx x s @ ",
"  i 3X3X3X3Xc l s s O @ % i gXdX3X3XdX3Xc l s % O O % @ VXAXVXoXe 7.] ] ] ] (.dXVX3XgX3X9X9X*X*X9X3Xc x 3X3X=X+XgXdX3X+Xx x s @ ",
"t i c c x l s s s s O @ % i 9X9XdX3X3X3Xx l s % O O % @ gXAXZXXXz.] ] ] ] ] F.oXdXgXdX3XgX*XdX3X3XdX3X3X9XgX+XXXdX9X9Xx x x s O ",
". i % O s s s s s s O I d i c l l l l l l s s % O O % @ dXAXZXl.} ] ] ] ] :.fX3X3XgX9XdXgXdX3X+XdX+XdX9XgX+XXX9XdXdX9X+X+Xx s O ",
". s s s @ @ O O @ O @ +.[ X.R 8 % % % % % % % % O O @ @ 3XCX1X] ] ] ] ] ] B 3XgX3XgX9X3X3X=X+Xw 9XdXVX9XdX9X9XdX9X3X3XgXc x s O ",
". i i i i % % @ @ @ @ +.] ] ] ] / ~ J M > 6 3 < 2 - v Y _.5.] ] ] ] ] ] L.w 3XdXx c 3XgX=X+Xw dX3XdX9X3X3XgXc 3X3X*X9X3X9Xx s O ",
"t i c dX*X*X*XoX3Xl i %.] ] ] ] ] ] ] ] ] ] ] ] ] ] ] ] ] ] ] ] ] ] ]  .$ s x x c 3X+XgXw w c c x l c 3X3X3Xc c gXc l c c l s O ",
". i dX*X=X*X*X*X*X+XoX^.] ] ] ] ] ] ] ] ] ] ] ] ] ] ] ] ] ] ] ] ] _ T & % @ i s s s s s s s s s s s s s s s s s s s s s s s O @ ",
". i dX*X=X+X3X3X3X9XdXlXw.] ] ] ] ] ] ] ] ] ] ] ] ] ] ] ] ] ] ' -.f i i % % @ @ @ @ @ O O @ @ @ @ @ @ O O O O O O O O O O O @ % ",
"t i dXVX9X+X9XVXVXgXVXgXmXxX].!.0.] ] ] ] ] ] ] ] ] ] ] p.[.jXiXdX3Xi s i % % % % % % % % % @ @ @ @ @ @ @ @ @ @ @ @ @ @ @ % % i ",
"t i dXVXVX9XVXgXdXdX9XVXdXgXVXgXaX5X>XJ.G.S.C Z V F.wXbXAX=X=X3XVXc % i s i i i % % % % % % % % % % % % % % % % % % % % % i i i ",
"t i dXgXZXVXgXVX=X+XXXgXgXZXdXZXVXVX*XoX9X3X3X3X3X3XgXdX3X=XXX3Xc l O % s i XX+X+X+Xl i i i s s s w +XoXXXw w q i i i i i s s s ",
"t i dXVXVXdX3Xc +XXXq VXdXVXZXdXdXdXZXVXVXdXVXdXZXdXc dXZXdX3X3Xl s O % i i +XXXXXXXl AXAXgXs s oX*X*X*XoXc *XdXdXZX*XgX9Xc i i ",
"o i dX3Xx l l l XXq x c x l x c x l l l x c 3XdX3Xc l l l l l l s s % O % i l XXXXw l gXgXgXl s 3Xc c c c c dXdX3X*XoXx dXAX9XO ",
"u i 3Xl i % % % % % % % % % % % % % % % % % % % % % % % % % % % % % % O @ i gXXXw l 9Xl 9X3Xl i 3X3XdX3XdX*X*XdXdXoXXXx 3XdXs O ",
". i % O O O O O O O O O O O O O O O O O O O O O O O O O O O O O O O O O @ i % 0 q s l l l l l i l l 9XdX*X*XoXc dXXXx x 3X3Xs O ",
". s i % % % @ @ @ @ @ @ @ @ @ @ @ @ @ @ @ @ @ @ @ @ @ @ @ @ @ @ @ @ @ @ @ % i 0 0 % O O O O O % i s s w q s s s w q s s s s s O ",
". s s s s i i i i i i i i % % % % % % % % % % % % % % % % % % % % % % % % % i i i i % % % % % % i i O O O O O O O O O O O O O O ",
"l % % % % % % % % % % % % % % % % % % % % % % % % % % % % % % % % % % % % % % % % % % % % % % % % % % % % % % % % % % % % % % % "
};
