/* XPM */
static char *out[] = {
/* columns rows colors chars-per-pixel */
"64 64 202 2 ",
"   c black",
".  c #28200C",
"X  c #302410",
"o  c #382C14",
"O  c #202020",
"+  c #2C2C2C",
"@  c gray22",
"#  c #403018",
"$  c #483818",
"%  c #653D18",
"&  c #581F29",
"*  c #7E1F33",
"=  c #7C1F34",
"-  c #5C2A32",
";  c #483739",
":  c #423838",
">  c #423839",
",  c #67202D",
"<  c #6A2A34",
"1  c #61363C",
"2  c #6F353D",
"3  c #404000",
"4  c #585400",
"5  c #735018",
"6  c #706C00",
"7  c #400040",
"8  c #500050",
"9  c #580058",
"0  c #484848",
"q  c #514748",
"w  c #584749",
"e  c #5F4649",
"r  c gray33",
"t  c #674549",
"y  c #6A4549",
"u  c #68454A",
"i  c #655254",
"p  c #6D5154",
"a  c #715054",
"s  c #7B5F62",
"d  c #7E5F62",
"f  c #646464",
"g  c #676464",
"h  c #6C6264",
"j  c #7B6D6F",
"k  c gray44",
"l  c #727070",
"z  c #7F7B7C",
"x  c #7C7C7C",
"c  c #846718",
"v  c #927E17",
"b  c #937D18",
"n  c #987B20",
"m  c #AC1F42",
"M  c #B71E46",
"N  c #992740",
"B  c #8B3243",
"V  c #953E4D",
"C  c #D91D52",
"Z  c #E41D56",
"A  c #E51D56",
"S  c #E41E56",
"D  c #E51E56",
"F  c #E41F56",
"G  c #C9264F",
"H  c #CD2550",
"J  c #D42050",
"K  c #D42351",
"L  c #D72253",
"P  c #D22451",
"I  c #DC2355",
"U  c #DF2356",
"Y  c #D62854",
"T  c #DB2C58",
"R  c #DA2F58",
"E  c #DC2F59",
"W  c #C03856",
"Q  c #DE315B",
"!  c #DF335C",
"~  c #DE375E",
"^  c #D23C5C",
"/  c #D53F5F",
"(  c #E22355",
")  c #E42056",
"_  c #E52056",
"`  c #E42156",
"'  c #E42057",
"]  c #E42157",
"[  c #E42256",
"{  c #E52356",
"}  c #E42257",
"|  c #E12554",
" . c #E52556",
".. c #E52756",
"X. c #E32A55",
"o. c #E42358",
"O. c #E52458",
"+. c #E52558",
"@. c #E52659",
"#. c #E52759",
"$. c #E32959",
"%. c #E22A59",
"&. c #E5295A",
"*. c #E42A5A",
"=. c #E22E5A",
"-. c #E0315B",
";. c #E1315C",
":. c #E2335D",
">. c #DE3D60",
",. c #E13E62",
"<. c #E33E63",
"1. c #844D54",
"2. c #934955",
"3. c #B04D5E",
"4. c #B24C5E",
"5. c #B9485D",
"6. c #845D62",
"7. c #BB5163",
"8. c #8E676C",
"9. c #846A6D",
"0. c #8D7678",
"q. c #85797A",
"w. c #947377",
"e. c #907478",
"r. c #A86972",
"t. c #BA6E78",
"y. c #B1757D",
"u. c #C14944",
"i. c #D94E4D",
"p. c #E04950",
"a. c #DF684B",
"s. c #DF6F49",
"d. c #CF4862",
"f. c #CC4B63",
"g. c #D04662",
"h. c #D84E69",
"j. c #DC4D69",
"k. c #CF546A",
"l. c #CC586D",
"z. c #C85E6F",
"x. c #D1526A",
"c. c #D4556C",
"v. c #CF5D70",
"b. c #D15C70",
"n. c #DD5870",
"m. c #E5496A",
"M. c #DD687B",
"N. c #848400",
"B. c #9C9C00",
"V. c #8D8014",
"C. c #A0990A",
"Z. c #A7931A",
"A. c #A59519",
"S. c #A69418",
"D. c #AA911F",
"F. c #B4AC00",
"G. c #B6A90A",
"H. c #BAA318",
"J. c #BDA01F",
"K. c #AF8C28",
"L. c #B2892B",
"P. c #CFBA18",
"I. c #C2972B",
"U. c #D98E3E",
"Y. c #D8963A",
"T. c #CCC400",
"R. c #E4D800",
"E. c #E4CD18",
"W. c #FCF420",
"Q. c #DB8940",
"!. c #BB7B83",
"~. c #D57282",
"^. c gray55",
"/. c #9F8285",
"(. c #9D8286",
"). c #998587",
"_. c #9B8487",
"`. c #978788",
"'. c #968789",
"]. c #9A9797",
"[. c #999798",
"{. c #989898",
"}. c #999898",
"|. c #A98B8F",
" X c #B38389",
".X c #A68E91",
"XX c #A29293",
"oX c #B49C9E",
"OX c #AFA1A2",
"+X c gray66",
"@X c #B0A0A1",
"#X c #B7B0B1",
"$X c #B4B4B4",
"%X c #C5848D",
"&X c #C28A91",
"*X c #C08C92",
"=X c #D099A0",
"-X c #C0C0C0",
";X c #D0D0D0",
":X c gainsboro",
">X c #E9C0C5",
",X c #ECECEC",
/* pixels */
"7 + + + + + + + + + + + + + + + + + + + + + + + + + + + + + + + + + + + + + + + + + + + + + + + + + + + + + + + + + + + + + + + ",
"$ r r r r r r r r r r 0 :XT.T.T.T.T.:X:X:X:X:X:XF.F.F.:XO @ ^.+X:X:X:X:X:XT.T.T.k ^.^.r O 0 0 0 0 0 0 0 0 0 0 r r r r r r r r r ",
"$ r r r r r r r r r r 0 :X;XF.F.F.F.{.+XT.T.;X-X-XT.T.^.O @ ^.-X$X^.T.x T.B.B.B.6 r r @ O @ k B.B.B.B.x x x k f 0 0 0 0 0 0 0 0 ",
"7 ^.^.^.^.^.^.^.^.O r 0 :X;XF.F.F.6 {.T.T.B.-X-X-XN.F.f O @ +X:X+X^.x T.x 6 N.6 r x r @ O @ B.T.R.B.6 ^.$X-XT.T.T.f f T.T.^.^.^.",
"8 ;X$XF.$X$X+X^.^.O r 0 :X;XB.B.N.6 {.T.B.+X+X{.^.^.B.r O @ ^.-X^.^.^.+X+Xf N.6 r k r @ O @ B.R.F.6 f x $X:XT.R.R.0 f T.T.N.x ;X",
"9 +X+XF.F.r k x k O r 0 :X-XB.N.6 k x {.+X{.B.^.k ^.N.r O @ 0 +XT.B.+X^.^.x 4 r k r r @ O @ B.R.6 f ^.$XR.T.x B.B.0 f B.N.6 0 ^.",
"8 $X{.6 r ^.^.^.k O 0 0 :X;XB.6 6 x +X{.{.{.B.^.{.k ^.r O @ 0 x B.N.F.^.+X+Xk f k @ @ @ O @ N.B.6 f x T.T.T.x 6 B.0 k f 0 0 f F.",
"7 $X$Xx ^.+X^.k r O @ 0 :X;X^.x x {.+X{.;Xx N.{.+X^.^.r O @ 0 k ^.+X^.+X^.^.^.+Xk @ @ @ + @ N.6 f ^.^.x T.x x 6 6 0 k x ^.k x N.",
"7 {.+X+Xk k ^.0 0 O + 0 :X-X+X{.x {.T.{.{.^.{.^.^.+X^.r O O 0 r k k r r @ @ @ @ @ @ @ O @ @ x f ^.x +X+Xx ^.+Xx 0 k ^.{.^.^.+Xx ",
"7 ^.^.^.^.k r 0 0 O + 0 :X,X+Xx {.x T.F.k ^.^.^.+X^.^.r + O 0 0 @ @ @ @ @ @ @ @ @ O O @ @ @ x $X$X^.B.x {.x x {.f k {.^.{.^.^.+X",
"7 k k k k r 0 @ @ O + 0 :X:X^.x {.{.T.B.k +X^.+X^.+X^.r + O @ 0 @ + + O O O O O + + @ @ @ @ x $Xx B.0 ^.+XR.x ^.k ^.k {.f k ^.f ",
"7 r r 0 0 0 O O O O + 0 +X:Xo.A A A A A ^ [.^.^.x ^.k f @ O @ 0 0 0 0 k +X+X+X+X:X:X6 1 A A A A A 0.f f x B.@ r r f 0 0 0 0 0 0 ",
"O O O O O O + + + + @ r ^.:X@.A A A A A A t.+Xx ^.B.^.r @ O @ 0 k +XW.W.:X:X:X;X;X:XT.c A A A A A s f r 0 4 @ @ @ @ @ @ + + + + ",
"O + + + + + + + + + @ r k +X@.A A A A A A %._.{.^.f f r @ O + @ +XW.T.B.^.^.+X^.+XB.k 5 A A A A A 1 @ @ @ @ @ @ + + O O O O O O ",
"O @ @ @ @ @ @ @ @ @ @ r 0 ^.@.A A A A A A A d.^.+XN.r r @ O + 0 +XT.N.x +X^.R.R.^.B.r c A A A A A - + + + + + + @ @ @ @ @ @ @ @ ",
"O r 0 @ @ @ @ @ @ @ @ r 0 k +.A A A A A A A A &X^.6 r k 0 O + 0 +XR.N.x ^.T.R.x ^.N.r 5 A A A A A a r O 0 0 0 0 0 0 0 0 0 0 0 0 ",
"O {.{.{.{.{.{.{.{.{.+ O r 0 +.A A A A A A A A -.`.k f r r O O 0 R.R.x x +XR.R.k ^.6 r 1 A A A A A s r 0 r x {.{.{.{.{.{.{.{.{.{.",
"7 ;XT.F.:X:XT.B.k k @ O r 0 ] A A A A A A A A A l.k ^.k 0 O O 0 R.x ^.x ^.B.6 f +X^.r 1 A A A A A s + 0 x -XT.T.T.:XF.+X+XT.T.T.",
"7 T.F.N.F.F.B.6 r k @ O r 0 F A A A ~ ] A A A A A 2.k r 0 O O 0 x ^.x ^.R.f f f r r r 1 A A A A A s O 0 {.T.T.T.x R.B.x +XT.B.N.",
"8 F.N.+XF.B.N.6 r k @ O 0 r S A A A x.5.A A A A A E i 0 + O O + +X^.k ^.k r @ @ @ @ @ 1 A A A A A a O 0 {.T.T.x {.B.B.x {.T.B.N.",
"8 N.+X^.F.B.6 6 r r @ O 0 r S A A A H ; L A A A A A M O O O O + ^.k @ @ @ O O O O O O & A A A A A a O 0 {.+Xx ^.{.B.x x +XT.B.N.",
"$ +X^.+XF.6 r r ^.r @ O 0 r S A A A J O * A A A A A A = O O O + @ r @ O O O O + + + + - A A A A A a O 0 ^.+X{.+X{.+Xx +Xx +XB.6 ",
"$ ^.+Xx x r k ^.k r @ O @ r S A A A C O O M A A A A A Y q 0 0 0 ^.^.{.B.B.B.B.B.x r + 1 A A A A A s O 0 ^.^.+XR.{.^.+X{.+X+Xx x ",
"$ ^.T.B.x ^.^.^.f 0 @ O @ ^. .A A A =.$X$X#XT A A A A A U.T.F.;X,X,X,XT.T.T.T.F.B.N.O 1 A A A A A 9.O 0 x {.+X{.^.+X{.R.{.x +X{.",
"# ^.B.N.+X^.^.^.f 0 @ O @ T.{ A A A ] x x x B A A A A A ) |.+X+X{.+X{.B.x B.N.B.N.6 O 1 A A A A A E.O 0 R.+X{.+X{.R.R.x +X{.{.+X",
"8 {.N.^.^.^.^.k r @ @ O @ F.[ A A A A g f f O W A A A A A i.].T.+X{.{.x +XN.x B.6 4 O 1 A A A A A S.O 0 B.4 k f R.F.N.6 4 k k r ",
"7 f f f f f r 0 @ @ @ O @ F.` A A A A C.6 f O e I A A A A A Y.N.{.T.T.+X{.N.+XN.f 4 O 1 A A A A A c O 0 4 @ @ 0 4 4 4 4 0 0 r r ",
"7 r 0 0 @ @ @ O O O O + @ F.` A A A A V.6 f O 0 V A A A A A X.e.{.T.N.{.+X{.{.x f 3 O 1 A A A A A 5 O 0 + + O O O O O O O O @ @ ",
"8 O O O O O O + + + 0 0 0 ,XF A A A A v 6 f O @ 0 b.A A A A A g.+X{.+X{.x F.N.x f 3 O 1 A A A A A a O 0 @ @ @ @ + + + O O O O O ",
"9 0 f f k ^.{.^.^.^.^.0 O ,X} A A A A d x f 3 O 0 XXm.A A A A A !.x {.+X{.F.N.x r 3 O 1 A A A A A a O 0 @ @ @ @ @ @ @ @ @ @ @ @ ",
"# f ^.$XF.F.^.+X+X+X+Xf O ,Xo.A A A A (.x f 3 O 0 {.>XA A A A A ;.OX+X{.+XF.N.^.r 3 O c A A A A A a O 0 6 B.B.B.F.F.N.N.0 0 0 0 ",
"# f $XF.F.N.f +X+X+X+X0 O ,Xo.A A A A w.^.f 3 O 0 x {.s.A A A A A v.{.x {.F.N.f r 3 O 1 A A A A A a O 0 k B.6 B.B.B.F.F.F.N.{.@ ",
"o f F.B.N.f ^.+XF.F.k f O ,X@.A A A A /.+Xf 3 O @ r {.Z.| A A A A A r.{.x F.N.k 0 @ O 1 A A A A A a O 0 {.k k B.B.N.N.6 6 6 x @ ",
"X f F.B.k k +Xk F.N.k f O ,X} A A A A /.x f 3 O + r +X,X%XA A A A A Q q.x F.N.f 0 + O c A A A A A a O 0 :X+X+XB.6 k k 4 f k f @ ",
". f k ^.+X^.k ^.F.6 k r O :Xo.A A A A oXx f 3 O + r ^.,X-Xa.A A A A A z.+XB.N.f 0 O O S.A A A A A % O 0 ;X+X^.B.6 ^.x {.f {.f @ ",
"o f +X+X^.+X+XF.B.6 k r O :X+.A A A A w.^.f 3 O O 0 k ;X-Xn ( A A A A A I.B.f f @ O O y A A A A A % O 0 -X+X+XB.6 x ^.{.{.+Xr @ ",
"# f :X{.+X^.^.N.6 6 k r O -X#.A A A A /.+Xf 3 3 O 0 r $X:X6 3.A A A A A R h f k @ O @ u A A A A A 5 @ 0 +X+X^.B.N.k {.x k {.r @ ",
"$ f :X+X+X^.{.6 6 k k r O $X#.A A A A /.^.f 3 3 O @ r ^.-X{.z / A A A A A 7.k r @ O @ t A A A A A 1 @ 0 k r 0 r r r r r r r r @ ",
"$ f :X$X^.F.N.^.k ^.{.r O {.#.A A A A w.^.f r 3 O @ r 0 ^.^.k 8.F A A A A S 1.0 O O @ e A A A A A 1 0 0 O O O O O O O O O O O O ",
"# f :X$X+X^.{.^.F.B.k r O x #.A A A A 6.^.x r 3 O + 0 0 @ + + + m A A A A A P : @ @ @ w A A A A A y 0 0 0 0 0 @ @ @ @ @ @ @ @ @ ",
"X f :XF.F.{.^.F.B.N.k r O r &.A A A A /.+Xx r 4 O + 0 0 0 @ @ @ > K A A A A A 4.f f k l A A A A A b N.N.N.x x x x x x x x x x @ ",
"X f F.F.N.+X{.B.6 6 f r O 0 &.A A A A /.x x r 4 O + @ f B.B.B.B.B.K._ A A A A $..X+X+X+X*.A A A A P.T.F.N.-X-XR.F.-XT.F.N.-Xx @ ",
". f F.N.x {.{.^.6 6 f O + 0 &.A A A A oX^.f r 4 O O @ 6 T.T.T.T.T.T.Q.A A A A A M.}.-X+X<.A A A A b N.N.$X$XR.F.-X-XF.F.F.N.f + ",
". f F.N.x +X^.^.^.^.r O + 0 &.A A A A /.^.f r 4 O O @ 6 T.F.F.F.F.F.G.p.A A A A A =XT.B.>.A A A A @X{.T.T.F.x ^.-XF.B.F.N.x r + ",
"  f F.N.^.^.+X^.+X^.r O @ 0 #.A A A A /.+Xf r 3 O O @ + F.F.B.B.B.B.B.L.D A A A A :.A.B.j.A A A A @XT.F.F.x ^.{.+Xk k F.k k r + ",
"  0 N.x ^.+X^.+X^.f r O @ 0 @.A A A A /.^.f r @ O O @ + ^.^.^.B.N.B.N.N.u.A A A A A k.x h.A A A A P.x x x {.+X+X{.^.^.F.k k r + ",
"  0 ^.^.^.^.x f r r O + @ 0 O.A A A A /.x f r @ O O @ + -X:X-XB.6 6 6 6 j E A A A A A y.c.A A A A ).x k ^.^.R.F.$X+X^.F.k k r + ",
"7 0 x x k f r r r r O + @ 0 } A A A A /.k f r @ O O @ + $X:X;XN.k k k k x  XA A A A A ! n.A A A A @X^.^.{.$XF.N.+X{.{.k k k r O ",
". 0 @ O r r r r r r O @ 0 0 ' A A A A 6.f r r @ O O @ + +X:X;Xk x ^.^.F.F.N.~.A A A A A A A A A A H.+X{.$XF.N.{.+X+X{.F.F.k r O ",
". r r r + + O O + O + @ 0 @ Z A A A A 2 @ @ @ @ O O + + ^.;X$X^.$X{.$XF.F.6 '.,.A A A A A A A A A @X-X{.+X{.{.+X{.^.^.$Xx k r O ",
". 0 0 0 0 @ @ + + + + @ 0 @ Z A A A A , O O O O O O O + ^.{.k k k k k N.6 6 ^.*XA A A A A A A A A @X{.^.^.$Xx ^.^.T.{.^.{.k r O ",
"7 0 x +XT.T.T.B.^.f 0 0 r @ Z A A A A < + + + + + + + @ r 0 @ + + + + + + r k k f.A A A A A A A A s x ^.^.^.x x $Xx f x x f r O ",
". 0 +XT.R.T.T.T.T.F.B.+X^.k F A A A A 2 @ @ @ @ @ @ @ 0 r 0 0 @ @ @ @ @ @ + 0 r p U A A A A A A A a r r r r r r r r r r r r O + ",
". 0 +XT.R.F.^.^.^.{.+X-XF.R...A A A A J.F.F.F.N.k x k f f r r 0 0 0 0 0 @ @ + + + N A A A A A A A - + O O O O O O O O O O O + @ ",
"7 0 +X-X{.F.{.-X-X$X-X$X-X+X] A A A A D.B.B.B.B.N.^.^.-X+X+X+X+X+X^.0 r 0 @ @ @ @ @ G A A A A A A - + + + + + + + + + + + @ @ 0 ",
"7 0 +X-X-X{.-X$X+X+X{.-X+X$X-X$X+X^.^.^.^.^.N.N.N.^.{.-X:XR.R.^.-Xx @ 0 r 0 0 0 @ @ @ @ @ @ @ @ @ @ @ @ @ @ @ @ @ @ @ @ @ 0 0 0 ",
"7 0 +X$X;X-X$X-XR.F.N.$X$X;X+X;X-X-XT.B.{.^.^.^.^.^.$X+X^.R.N.^.x f O @ r 0 N.F.F.F.f 0 0 0 r r r 6 F.B.N.6 6 4 0 0 0 0 0 r r r ",
"7 0 +X-X-X+X^.x F.N.4 -X+X-X;X+X+X+X;X-X-X+X-X+X;X+Xx +X;X+X^.^.f r O @ 0 0 F.N.N.N.f :X:X$Xr r B.T.T.T.B.x T.+X+X;XT.$X{.x 0 0 ",
"o 0 +X^.k f f f N.4 k x k f k x k f f f k x ^.+X^.x f f f f f f r r @ O @ 0 f N.N.6 f $X$X$Xf r ^.x x x x x +X+X^.T.B.k +X:X{.O ",
"9 0 ^.f 0 @ @ @ @ @ @ @ @ @ @ @ @ @ @ @ @ @ @ @ @ @ @ @ @ @ @ @ @ @ @ O + 0 $XN.6 f {.f {.^.f 0 ^.^.+X^.+XT.T.+X+XB.N.k ^.+Xr O ",
". 0 @ O O O O O O O O O O O O O O O O O O O O O O O O O O O O O O O O O + 0 @ 3 4 r f f f f f 0 f f {.+XT.T.B.x +XN.k k ^.^.r O ",
". r 0 @ @ @ + + + + + + + + + + + + + + + + + + + + + + + + + + + + + + + @ 0 3 3 @ O O O O O @ 0 r r 6 4 r r r 6 4 r r r r r O ",
". r r r r 0 0 0 0 0 0 0 0 @ @ @ @ @ @ @ @ @ @ @ @ @ @ @ @ @ @ @ @ @ @ @ @ @ 0 0 0 0 @ @ @ @ @ @ 0 0 O O O O O O O O O O O O O O ",
"f @ @ @ @ @ @ @ @ @ @ @ @ @ @ @ @ @ @ @ @ @ @ @ @ @ @ @ @ @ @ @ @ @ @ @ @ @ @ @ @ @ @ @ @ @ @ @ @ @ @ @ @ @ @ @ @ @ @ @ @ @ @ @ "
};
